<?xml version="1.0" encoding="UTF-8"?>
<svg id="_レイヤー_2" data-name="レイヤー 2" xmlns="http://www.w3.org/2000/svg" viewBox="0 0 71.05 226">
  <defs>
    <style>
      .cls-1 {
        fill: #b3e2f1;
      }

      .cls-2 {
        fill: #2b3e60;
      }
    </style>
  </defs>
  <g id="Layer_1" data-name="Layer 1">
    <g id="NewGroupe4">
      <g id="NewGroup16-0">
        <g>
          <path class="cls-1" d="m49.29,12.94c0-3.03-2.47-5.5-5.5-5.5h-18.44c-1.47,0-2.85.57-3.88,1.61-1.04,1.04-1.61,2.42-1.61,3.89,0,2.44,1.64,4.62,3.98,5.28.49.14,1,.21,1.52.21h18.44c.59,0,1.16-.09,1.7-.27.83-.27,1.58-.73,2.19-1.34,1.04-1.04,1.61-2.42,1.61-3.89h0Z"/>
          <path class="cls-1" d="m35.11,144.03c-5.77,0-10.46,4.69-10.46,10.46s4.69,10.46,10.46,10.46,10.46-4.69,10.46-10.46-4.69-10.46-10.46-10.46h0Z"/>
          <path class="cls-2" d="m17.18,86.41c.28-.45.46-.96.53-1.49l7.38-58.8c.09,0,.18,0,.27,0h18.44c.21,0,.42,0,.63,0l7.38,58.81c.08.67.35,1.31.77,1.85l4.55,5.76c4.3,5.44,6.6,12.26,6.47,19.21l-1.74,92.95c-.08,4.38-2.73,8.25-6.76,9.87-7.44,2.98-15.18,4.31-23.03,3.95-6.19-.28-12.28-1.61-18.11-3.96-3.96-1.6-6.53-5.4-6.53-9.68v-94.96c0-5.05,1.4-9.99,4.06-14.29l5.67-9.2h0ZM21.47,9.06c1.04-1.04,2.41-1.61,3.88-1.61h18.44c3.03,0,5.5,2.47,5.5,5.5,0,1.47-.57,2.85-1.61,3.89-.61.61-1.36,1.07-2.19,1.34-.54.18-1.11.27-1.7.27h-18.44c-.51,0-1.02-.07-1.52-.21-2.34-.67-3.98-2.84-3.98-5.28,0-1.47.57-2.85,1.61-3.89h0ZM5.16,91.7c-3.38,5.47-5.16,11.77-5.16,18.2v94.96c0,7.34,4.39,13.85,11.19,16.59,6.61,2.66,13.52,4.18,20.56,4.49.93.04,1.87.06,2.8.06,7.95,0,15.78-1.52,23.33-4.54,6.81-2.73,11.3-9.26,11.43-16.64l1.74-92.95h0c.16-8.66-2.71-17.17-8.08-23.96l-3.91-4.94-7.49-59.68c.48-.36.94-.76,1.37-1.18,2.45-2.44,3.8-5.69,3.8-9.15,0-7.14-5.81-12.94-12.94-12.94h-18.44c-3.46,0-6.71,1.35-9.15,3.79-2.45,2.44-3.8,5.69-3.8,9.15,0,4.28,2.13,8.2,5.49,10.58l-7.49,59.67-5.25,8.51h0Z"/>
          <path class="cls-2" d="m35.11,144.03c5.77,0,10.46,4.69,10.46,10.46s-4.69,10.46-10.46,10.46-10.46-4.69-10.46-10.46,4.69-10.46,10.46-10.46h0Zm0,28.37c9.87,0,17.91-8.03,17.91-17.91s-8.03-17.91-17.91-17.91-17.91,8.03-17.91,17.91,8.03,17.91,17.91,17.91h0Z"/>
          <path class="cls-2" d="m23.94,128.07h21.99c.88,0,1.68-.36,2.25-.94.58-.57.94-1.38.94-2.25,0-1.76-1.43-3.19-3.19-3.19h-21.99c-.88,0-1.68.36-2.26.94-.58.57-.94,1.38-.94,2.26,0,1.76,1.43,3.19,3.19,3.19h0Z"/>
          <path class="cls-2" d="m45.92,180.91h-21.99c-.88,0-1.68.36-2.26.94-.58.57-.94,1.38-.94,2.26,0,1.76,1.43,3.19,3.19,3.19h21.99c.88,0,1.68-.36,2.25-.94.58-.57.94-1.38.94-2.25,0-1.76-1.43-3.19-3.19-3.19h0Z"/>
        </g>
      </g>
    </g>
  </g>
</svg>