<?xml version="1.0" encoding="UTF-8"?>
<svg id="_レイヤー_2" data-name="レイヤー 2" xmlns="http://www.w3.org/2000/svg" viewBox="0 0 63.57 226">
  <defs>
    <style>
      .cls-1 {
        fill: #112142;
      }

      .cls-2 {
        fill: #06b6be;
      }
    </style>
  </defs>
  <g id="Layer_1" data-name="Layer 1">
    <g id="NewGroupe0">
      <g id="NewGroup16-4">
        <g>
          <path class="cls-1" d="m54.05,198.73c0,7-5.67,12.68-12.68,12.68h-19.3c-7,0-12.68-5.67-12.68-12.68v-80.62c0-7,5.67-12.68,12.68-12.68h19.3c7,0,12.68,5.67,12.68,12.68v80.62h0Zm2.25-104.73l-4.55-5.76-7.79-62.08c-.03-.21-.22-.34-.42-.3-1.12.23-2.29.36-3.48.36h-18.43c-1.07,0-2.12-.1-3.14-.29-.2-.04-.39.1-.42.3l-7.79,62.01-5.67,9.19c-3.01,4.88-4.61,10.5-4.61,16.24v94.91c0,5.77,3.5,10.97,8.85,13.13,5.06,2.04,11.6,3.88,19.32,4.22,10.03.45,18.44-1.76,24.56-4.21,5.42-2.17,8.98-7.41,9.09-13.25l1.74-92.9c.15-7.81-2.42-15.44-7.27-21.57h0Z"/>
          <path class="cls-2" d="m19.09,18.08c.8.23,1.66.35,2.53.35h18.43c1,0,1.97-.16,2.87-.46,1.39-.45,2.63-1.23,3.64-2.24,1.67-1.67,2.7-3.97,2.7-6.51,0-5.09-4.13-9.21-9.21-9.21h-18.43c-2.54,0-4.85,1.03-6.51,2.7-1.67,1.67-2.7,3.97-2.7,6.51,0,4.21,2.82,7.76,6.68,8.86h0Z"/>
          <path class="cls-2" d="m31.37,144.07c-7.83,0-14.18,6.35-14.18,14.18s6.35,14.18,14.18,14.18,14.18-6.35,14.18-14.18-6.35-14.18-14.18-14.18h0Z"/>
          <path class="cls-2" d="m20.2,131.84h21.97c.88,0,1.68-.36,2.25-.94.58-.57.94-1.38.94-2.25,0-1.76-1.43-3.19-3.19-3.19h-21.97c-.88,0-1.68.36-2.25.94-.58.57-.94,1.38-.94,2.25,0,1.76,1.43,3.19,3.19,3.19h0Z"/>
          <path class="cls-2" d="m42.18,184.65h-21.97c-.88,0-1.68.36-2.25.94-.58.57-.94,1.38-.94,2.25,0,1.76,1.43,3.19,3.19,3.19h21.97c.88,0,1.68-.36,2.25-.94.58-.57.94-1.38.94-2.25,0-1.76-1.43-3.19-3.19-3.19h0Z"/>
        </g>
      </g>
    </g>
  </g>
</svg>