<?xml version="1.0" encoding="UTF-8"?>
<svg id="_レイヤー_2" data-name="レイヤー 2" xmlns="http://www.w3.org/2000/svg" viewBox="0 0 67.43 76.2">
  <defs>
    <style>
      .cls-1 {
        fill: #4b5563;
      }

      .cls-1, .cls-2, .cls-3, .cls-4, .cls-5 {
        stroke-width: 0px;
      }

      .cls-2 {
        fill: #06b6be;
      }

      .cls-3 {
        fill: #112142;
      }

      .cls-4 {
        fill: #736357;
      }

      .cls-5 {
        fill: #fde047;
      }
    </style>
  </defs>
  <g id="_レイヤー_1-2" data-name="レイヤー 1">
    <g>
      <path class="cls-3" d="m40.99,66.98c0,2.36-1.91,4.27-4.27,4.27h-6.51c-2.36,0-4.27-1.91-4.27-4.27v-27.17c0-2.36,1.91-4.27,4.27-4.27h6.51c2.36,0,4.27,1.91,4.27,4.27v27.17h0Zm.76-35.3l-1.53-1.94-2.63-20.92c0-.07-.07-.12-.14-.1-.38.08-.77.12-1.17.12h-6.21c-.36,0-.71-.03-1.06-.1-.07-.01-.13.03-.14.1l-2.62,20.9-1.91,3.1c-1.02,1.64-1.55,3.54-1.55,5.47v31.99c0,1.95,1.18,3.7,2.98,4.42,1.71.69,3.91,1.31,6.51,1.42,3.38.15,6.22-.59,8.28-1.42,1.83-.73,3.03-2.5,3.06-4.47l.59-31.31c.05-2.63-.82-5.2-2.45-7.27h0Z"/>
      <path class="cls-2" d="m29.21,6.09c.27.08.56.12.85.12h6.21c.34,0,.66-.05.97-.16.47-.15.89-.41,1.23-.75.56-.56.91-1.34.91-2.2,0-1.72-1.39-3.11-3.11-3.11h-6.21c-.86,0-1.63.35-2.2.91-.56.56-.91,1.34-.91,2.2,0,1.42.95,2.62,2.25,2.99h0Z"/>
      <path class="cls-2" d="m33.34,48.56c-2.64,0-4.78,2.14-4.78,4.78s2.14,4.78,4.78,4.78,4.78-2.14,4.78-4.78-2.14-4.78-4.78-4.78h0Z"/>
      <path class="cls-2" d="m29.58,44.44h7.41c.3,0,.57-.12.76-.32.19-.19.32-.46.32-.76,0-.59-.48-1.08-1.08-1.08h-7.41c-.3,0-.57.12-.76.32-.19.19-.32.46-.32.76,0,.59.48,1.08,1.08,1.08h0Z"/>
      <path class="cls-2" d="m36.99,62.23h-7.41c-.3,0-.57.12-.76.32-.19.19-.32.46-.32.76,0,.59.48,1.08,1.08,1.08h7.41c.3,0,.57-.12.76-.32.19-.19.32-.46.32-.76,0-.59-.48-1.08-1.08-1.08h0Z"/>
    </g>
    <g>
      <path class="cls-4" d="m64.22,67.01c0,2.36-1.91,4.27-4.27,4.27h-6.51c-2.36,0-4.27-1.91-4.27-4.27v-27.17c0-2.36,1.91-4.27,4.27-4.27h6.51c2.36,0,4.27,1.91,4.27,4.27v27.17h0Zm.76-35.3l-1.53-1.94-2.63-20.92c0-.07-.07-.12-.14-.1-.38.08-.77.12-1.17.12h-6.21c-.36,0-.71-.03-1.06-.1-.07-.01-.13.03-.14.1l-2.62,20.9-1.91,3.1c-1.02,1.64-1.55,3.54-1.55,5.47v31.99c0,1.95,1.18,3.7,2.98,4.42,1.71.69,3.91,1.31,6.51,1.42,3.38.15,6.22-.59,8.28-1.42,1.83-.73,3.03-2.5,3.06-4.47l.59-31.31c.05-2.63-.82-5.2-2.45-7.27h0Z"/>
      <path class="cls-5" d="m52.43,6.12c.27.08.56.12.85.12h6.21c.34,0,.66-.05.97-.16.47-.15.89-.41,1.23-.75.56-.56.91-1.34.91-2.2,0-1.72-1.39-3.11-3.11-3.11h-6.21c-.86,0-1.63.35-2.2.91-.56.56-.91,1.34-.91,2.2,0,1.42.95,2.62,2.25,2.99h0Z"/>
      <path class="cls-5" d="m56.57,48.59c-2.64,0-4.78,2.14-4.78,4.78s2.14,4.78,4.78,4.78,4.78-2.14,4.78-4.78-2.14-4.78-4.78-4.78h0Z"/>
      <path class="cls-5" d="m52.81,44.47h7.41c.3,0,.57-.12.76-.32.19-.19.32-.46.32-.76,0-.59-.48-1.08-1.08-1.08h-7.41c-.3,0-.57.12-.76.32-.19.19-.32.46-.32.76,0,.59.48,1.08,1.08,1.08h0Z"/>
      <path class="cls-5" d="m60.21,62.27h-7.41c-.3,0-.57.12-.76.32-.19.19-.32.46-.32.76,0,.59.48,1.08,1.08,1.08h7.41c.3,0,.57-.12.76-.32.19-.19.32-.46.32-.76,0-.59-.48-1.08-1.08-1.08h0Z"/>
    </g>
    <g>
      <path class="cls-1" d="m18.22,67.01c0,2.36-1.91,4.27-4.27,4.27h-6.51c-2.36,0-4.27-1.91-4.27-4.27v-27.17c0-2.36,1.91-4.27,4.27-4.27h6.51c2.36,0,4.27,1.91,4.27,4.27v27.17h0Zm.76-35.3l-1.53-1.94-2.63-20.92c0-.07-.07-.12-.14-.1-.38.08-.77.12-1.17.12h-6.21c-.36,0-.71-.03-1.06-.1-.07-.01-.13.03-.14.1l-2.62,20.9-1.91,3.1c-1.02,1.64-1.55,3.54-1.55,5.47v31.99c0,1.95,1.18,3.7,2.98,4.42,1.71.69,3.91,1.31,6.51,1.42,3.38.15,6.22-.59,8.28-1.42,1.83-.73,3.03-2.5,3.06-4.47l.59-31.31c.05-2.63-.82-5.2-2.45-7.27h0Z"/>
      <path class="cls-1" d="m6.43,6.12c.27.08.56.12.85.12h6.21c.34,0,.66-.05.97-.16.47-.15.89-.41,1.23-.75.56-.56.91-1.34.91-2.2C16.6,1.42,15.21.03,13.5.03h-6.21c-.86,0-1.63.35-2.2.91-.56.56-.91,1.34-.91,2.2,0,1.42.95,2.62,2.25,2.99h0Z"/>
      <path class="cls-1" d="m10.57,48.59c-2.64,0-4.78,2.14-4.78,4.78s2.14,4.78,4.78,4.78,4.78-2.14,4.78-4.78-2.14-4.78-4.78-4.78h0Z"/>
      <path class="cls-1" d="m6.81,44.47h7.41c.3,0,.57-.12.76-.32.19-.19.32-.46.32-.76,0-.59-.48-1.08-1.08-1.08h-7.41c-.3,0-.57.12-.76.32-.19.19-.32.46-.32.76,0,.59.48,1.08,1.08,1.08h0Z"/>
      <path class="cls-1" d="m14.21,62.27h-7.41c-.3,0-.57.12-.76.32-.19.19-.32.46-.32.76,0,.59.48,1.08,1.08,1.08h7.41c.3,0,.57-.12.76-.32.19-.19.32-.46.32-.76,0-.59-.48-1.08-1.08-1.08h0Z"/>
    </g>
  </g>
</svg>