<?xml version="1.0" encoding="UTF-8"?>
<svg id="_レイヤー_2" data-name="レイヤー 2" xmlns="http://www.w3.org/2000/svg" viewBox="0 0 170.54 188.37">
  <defs>
    <style>
      .cls-1 {
        stroke: #000;
      }

      .cls-1, .cls-2, .cls-3 {
        stroke-miterlimit: 10;
      }

      .cls-2, .cls-3 {
        stroke: #4b5563;
      }

      .cls-3 {
        fill: #fde047;
      }

      .cls-4, .cls-5 {
        stroke-width: 0px;
      }

      .cls-5 {
        fill: #4b5563;
      }
    </style>
  </defs>
  <g id="_レイヤー_19" data-name="レイヤー 19">
    <path class="cls-2" d="m118.57,64.54c.86,1.13,7.17,1.3,11.13,0,8.1-2.66,5.15-11.03,9.28-33.66,1.46-7.99,2.59-11.16,5.57-14.59,7.63-8.79,9.28-10.1,9.28-10.1,2.18-1.73,4.59-3.34,3.71-4.49-.93-1.22-5.08-1.32-7.42-1.12-9.31.8-14.85,8.6-16.7,11.22-13.73,19.49,1.57,42.03-11.13,49.37-.98.57-4.46,2.39-3.71,3.37Z"/>
    <g>
      <path class="cls-4" d="m66.8,112.98c-2.2-4.61-6.14-8.09-10.6-9.38-.59-.17-1.22-.3-1.78-.05-.41.18-.73.53-1.03.9-3.67,4.56-3.98,11.35-3.97,17.53,0,1.24.02,2.53.52,3.62s1.66,1.91,2.68,1.5c.61-.25,1.05-.86,1.47-1.42,2.95-3.97,6.85-7,11.17-8.68.93-.36,2.08-.98,2-2.09"/>
      <path class="cls-5" d="m67.45,112.6c-1.96-4-5.21-7.39-9.36-9.12-.92-.38-1.97-.83-2.98-.82-1.11,0-1.83.71-2.47,1.53-1.31,1.69-2.19,3.67-2.78,5.71-.63,2.21-.92,4.51-1.07,6.8s-.34,4.96-.04,7.34c.22,1.77,1.32,4.03,3.43,3.9.9-.06,1.56-.64,2.1-1.31.8-1,1.55-2.01,2.44-2.94,1.9-2,4.11-3.7,6.56-4.99,1.71-.89,4.64-1.4,4.71-3.81.03-.97-1.47-.96-1.5,0-.03.89-1.11,1.22-1.79,1.5-.85.35-1.69.74-2.51,1.18-1.59.86-3.08,1.91-4.46,3.08-1.47,1.25-2.78,2.65-3.96,4.17-.5.65-1.19,1.96-2.2,1.51-1.06-.48-1.31-1.89-1.39-2.91-.31-3.74-.06-7.86.72-11.53.37-1.74.91-3.46,1.76-5.03.41-.75.91-1.73,1.58-2.28.89-.73,2.06-.2,3.02.18,3.96,1.56,7.02,4.83,8.87,8.6.42.87,1.72.11,1.3-.76h0Z"/>
    </g>
    <path class="cls-5" d="m66.51,113.58v.44c0,.1.02.2.06.29.03.09.08.17.16.24.07.07.15.12.24.16.09.05.19.07.29.06l.2-.03c.13-.04.24-.1.33-.19l.12-.15c.07-.12.1-.24.1-.38v-.44c0-.1-.02-.2-.06-.29-.03-.09-.08-.17-.16-.24-.07-.07-.15-.12-.24-.16-.09-.05-.19-.07-.29-.06l-.2.03c-.13.04-.24.1-.33.19l-.12.15c-.07.12-.1.24-.1.38h0Z"/>
    <path class="cls-2" d="m134.14,101.48c2.09-7.43,4.31-18.05,2.99-27.6-.91-6.61-3.9-28.19-26.49-20.12-26.3,9.4-68.92,55.33-78.42,83.22-6.35,18.66,3.86,24.12,16.99,31.13,8.17,4.37,12.75-11.71,24.49-18.59,13.5-7.91,19.03-17.87,29-30,10.39-12.64,27.12-11.1,31.43-18.04Z"/>
    <path class="cls-1" d="m51.71,175.51c10-8,10.08-18.31,6.25-20.52s-11.07,3.17-16.18,12.02-5.9,18.29-2.07,20.5c3.83,2.21,4.8-6.24,12-12Z"/>
    <path class="cls-1" d="m25.71,164.51c11-8,9.99-18,6.17-20.21s-11.07,3.17-16.18,12.02c-5.11,8.85-6.15,17.81-2.32,20.02,3.83,2.21,4.07-5.82,12.33-11.83Z"/>
    <path class="cls-1" d="m124.97,73.41c-12.3.9-10.92,3.15-10.46,9.52.47,6.37,11.92,20.96,24.22,20.06,12.3-.9,21.89-6.8,21.43-13.17-.47-6.37-22.89-17.31-35.19-16.41Z"/>
    <path class="cls-1" d="m157.69,101.16c3.83,6.64,8.87,10.93,11.19,9.59,2.32-1.34,1.03-7.79-2.8-14.43s-8.82-10.94-11.13-9.6-1.09,7.8,2.75,14.44Z"/>
    <path class="cls-1" d="m128.52,76.33c5.38,9.32,12.82,15.12,16.52,12.99,3.7-2.13,2.25-11.4-3.13-20.72s-12.74-15.14-16.44-13.01c-3.7,2.13-2.33,11.42,3.05,20.74Z"/>
    <g>
      <path class="cls-4" d="m52.69,94.33c2.61-4.8,7.28-8.43,12.57-9.78.69-.18,1.45-.31,2.12-.05.48.19.87.56,1.22.94,4.35,4.75,4.72,11.82,4.71,18.27,0,1.29-.02,2.63-.62,3.77s-1.96,1.99-3.18,1.56c-.73-.26-1.24-.89-1.74-1.48-3.49-4.13-8.12-7.29-13.24-9.05-1.1-.38-2.46-1.02-2.37-2.18"/>
      <path class="cls-5" d="m53.34,94.7c1.94-3.49,4.89-6.31,8.47-8.09.94-.47,1.93-.85,2.93-1.15.48-.14.97-.31,1.47-.33.99-.05,1.5.42,2.1,1.11,1.34,1.54,2.27,3.4,2.89,5.33,1.23,3.84,1.35,7.93,1.35,11.93,0,1.18.06,2.52-.52,3.59-.75,1.39-2.14,1.64-3.23.52-1.44-1.47-2.71-3.02-4.31-4.34-1.73-1.43-3.6-2.68-5.59-3.71-1-.51-2.02-.97-3.07-1.38-.85-.33-2.9-.7-2.94-1.86-.03-.96-1.53-.97-1.5,0,.07,2.28,2.7,2.77,4.41,3.46,2.56,1.04,5,2.46,7.17,4.18.98.78,1.92,1.62,2.79,2.51s1.65,2.11,2.69,2.84c1.9,1.32,4.2.09,5.05-1.85.95-2.19.58-5.08.49-7.41s-.32-4.88-.89-7.24-1.48-4.64-2.91-6.59c-.65-.89-1.4-1.91-2.44-2.36-1.1-.48-2.32-.15-3.41.18-5.21,1.54-9.67,5.18-12.3,9.92-.47.84.83,1.6,1.3.76h0Z"/>
    </g>
    <g>
      <path class="cls-4" d="m25.05,93.11c-2.2-4.61-6.14-8.09-10.6-9.38-.59-.17-1.22-.3-1.78-.05-.41.18-.73.53-1.03.9-3.67,4.56-3.98,11.35-3.97,17.53,0,1.24.02,2.53.52,3.62s1.66,1.91,2.68,1.5c.61-.25,1.05-.86,1.47-1.42,2.95-3.97,6.85-7,11.17-8.68.93-.36,2.08-.98,2-2.09"/>
      <path class="cls-5" d="m25.7,92.73c-1.96-4-5.21-7.39-9.36-9.12-.92-.38-1.97-.83-2.98-.82-1.11,0-1.83.71-2.47,1.53-1.31,1.69-2.19,3.67-2.78,5.71-.63,2.21-.92,4.51-1.07,6.8s-.34,4.96-.04,7.34c.22,1.77,1.32,4.03,3.43,3.9.9-.06,1.56-.64,2.1-1.31.8-1,1.55-2.01,2.44-2.94,1.9-2,4.11-3.7,6.56-4.99,1.71-.89,4.64-1.4,4.71-3.81.03-.97-1.47-.96-1.5,0-.03.89-1.11,1.22-1.79,1.5-.85.35-1.69.74-2.51,1.18-1.59.86-3.08,1.91-4.46,3.08-1.47,1.25-2.78,2.65-3.96,4.17-.5.65-1.19,1.96-2.2,1.51-1.06-.48-1.31-1.89-1.39-2.91-.31-3.74-.06-7.86.72-11.53.37-1.74.91-3.46,1.76-5.03.41-.75.91-1.73,1.58-2.28.89-.73,2.06-.2,3.02.18,3.96,1.56,7.02,4.83,8.87,8.6.42.87,1.72.11,1.3-.76h0Z"/>
    </g>
    <g>
      <path class="cls-4" d="m27.4,148.6c-4.33,0-9.44-.36-14.5-3.02-1.04-.55-2.12-1.11-3.43-2.14C1.68,137.33-.07,126.06.66,120.39c.99-7.74,6.06-14.95,14.28-20.3,7.58-4.93,16.95-7.76,25.72-7.76s18.3,2.87,25.78,7.67c8.33,5.35,13.38,12.59,14.22,20.38,1.01,9.42-3.83,19.71-11.78,25.03-3.83,2.56-9.46,3.06-17.9,3.06-2.99,0-6.3-.06-10.31-.15-.56-.01-1.11-.02-1.66-.02-2.1,0-4.14.08-6.11.15-1.91.07-3.71.14-5.5.14Z"/>
      <path class="cls-4" d="m40.66,92.83c8.57,0,18.11,2.84,25.51,7.59,8.2,5.26,13.17,12.37,13.99,20.02.99,9.24-3.76,19.34-11.56,24.56-3.72,2.49-9.28,2.98-17.62,2.98-2.98,0-6.29-.06-10.3-.15-.56-.01-1.12-.02-1.67-.02-2.11,0-4.15.07-6.13.15-1.9.07-3.69.14-5.48.14-4.48,0-9.32-.36-14.27-2.96-1.02-.54-2.08-1.09-3.35-2.09-7.62-5.97-9.34-17.02-8.62-22.59.97-7.6,5.96-14.68,14.06-19.95,7.5-4.88,16.77-7.68,25.45-7.68m0-1c-17.51,0-38.32,11.41-40.5,28.5-.78,6.11,1.13,17.33,9,23.5,1.32,1.04,2.42,1.62,3.51,2.19,4.84,2.54,9.65,3.08,14.73,3.08,3.69,0,7.53-.28,11.61-.28.55,0,1.1,0,1.65.02,3.9.08,7.31.15,10.32.15,8.99,0,14.36-.59,18.18-3.15,8.03-5.38,13.03-15.93,12-25.5-1.86-17.34-23.16-28.5-40.5-28.5h0Z"/>
    </g>
    <ellipse class="cls-2" cx="39.66" cy="124.83" rx="2.5" ry="2"/>
    <circle class="cls-2" cx="63.16" cy="121.83" r="13"/>
    <circle class="cls-2" cx="19.16" cy="121.83" r="13"/>
    <circle class="cls-3" cx="63.16" cy="121.83" r="11"/>
    <circle class="cls-3" cx="19.16" cy="121.83" r="11"/>
    <circle class="cls-2" cx="19.66" cy="121.33" r="8.5"/>
    <circle class="cls-2" cx="62.66" cy="121.33" r="8.5"/>
    <path class="cls-1" d="m126.65,97.39c3.83,6.64,8.87,10.93,11.19,9.59,2.32-1.34,1.03-7.79-2.8-14.43s-8.82-10.94-11.13-9.6-1.09,7.8,2.75,14.44Z"/>
  </g>
</svg>